<svg width="32" height="32" viewBox="0 0 32 32" fill="none" xmlns="http://www.w3.org/2000/svg">
<path d="M16.0001 2.66666C8.64808 2.66666 2.66675 8.64799 2.66675 16C2.66675 23.352 8.64808 29.3333 16.0001 29.3333C23.3521 29.3333 29.3334 23.352 29.3334 16C29.3334 8.64799 23.3521 2.66666 16.0001 2.66666ZM17.3334 24H14.6667V21.3333H17.3334V24ZM18.6347 17.4867C18.3734 17.6973 18.1214 17.8987 17.9214 18.0987C17.3774 18.6413 17.3347 19.1347 17.3334 19.156V19.3333H14.6667V19.1107C14.6667 18.9533 14.7054 17.5413 16.0347 16.212C16.2947 15.952 16.6174 15.688 16.9561 15.4133C17.9347 14.62 18.5774 14.0413 18.5774 13.244C18.5619 12.5704 18.2834 11.9297 17.8015 11.4588C17.3196 10.988 16.6725 10.7244 15.9988 10.7246C15.325 10.7248 14.6781 10.9887 14.1964 11.4597C13.7147 11.9308 13.4366 12.5717 13.4214 13.2453H10.7547C10.7547 10.3533 13.1081 7.99999 16.0001 7.99999C18.8921 7.99999 21.2454 10.3533 21.2454 13.2453C21.2454 15.3747 19.6734 16.6453 18.6347 17.4867Z" fill="#017EFA"/>
</svg>
